<svg width="34" height="34" viewBox="0 0 34 34" fill="none" xmlns="http://www.w3.org/2000/svg">
<path d="M7.08333 29.75C6.30417 29.75 5.63715 29.4726 5.08229 28.9177C4.52743 28.3628 4.25 27.6958 4.25 26.9167V12.75C4.25 11.9708 4.52743 11.3038 5.08229 10.749C5.63715 10.1941 6.30417 9.91667 7.08333 9.91667H9.91667V7.08333C9.91667 6.30417 10.1941 5.63715 10.749 5.08229C11.3038 4.52743 11.9708 4.25 12.75 4.25H21.25C22.0292 4.25 22.6962 4.52743 23.251 5.08229C23.8059 5.63715 24.0833 6.30417 24.0833 7.08333V15.5833H26.9167C27.6958 15.5833 28.3628 15.8608 28.9177 16.4156C29.4726 16.9705 29.75 17.6375 29.75 18.4167V26.9167C29.75 27.6958 29.4726 28.3628 28.9177 28.9177C28.3628 29.4726 27.6958 29.75 26.9167 29.75H18.4167V24.0833H15.5833V29.75H7.08333ZM7.08333 26.9167H9.91667V24.0833H7.08333V26.9167ZM7.08333 21.25H9.91667V18.4167H7.08333V21.25ZM7.08333 15.5833H9.91667V12.75H7.08333V15.5833ZM12.75 21.25H15.5833V18.4167H12.75V21.25ZM12.75 15.5833H15.5833V12.75H12.75V15.5833ZM12.75 9.91667H15.5833V7.08333H12.75V9.91667ZM18.4167 21.25H21.25V18.4167H18.4167V21.25ZM18.4167 15.5833H21.25V12.75H18.4167V15.5833ZM18.4167 9.91667H21.25V7.08333H18.4167V9.91667ZM24.0833 26.9167H26.9167V24.0833H24.0833V26.9167ZM24.0833 21.25H26.9167V18.4167H24.0833V21.25Z" fill="#A6A6A6" fill-opacity="0.5"/>
</svg>
