<svg width="34" height="35" viewBox="0 0 34 35" fill="none" xmlns="http://www.w3.org/2000/svg">
<path d="M28.3333 17.5C27.9556 17.5 27.6191 17.3642 27.324 17.0927C27.0288 16.8212 26.8576 16.4847 26.8104 16.0833C26.5035 13.8875 25.5767 12.0163 24.0302 10.4698C22.4837 8.92326 20.6125 7.99653 18.4167 7.68958C18.0153 7.64236 17.6788 7.47708 17.4073 7.19375C17.1358 6.91042 17 6.56806 17 6.16667C17 5.76528 17.1417 5.42882 17.425 5.15729C17.7083 4.88576 18.0389 4.77361 18.4167 4.82083C21.3917 5.15139 23.9299 6.36736 26.0312 8.46875C28.1326 10.5701 29.3486 13.1083 29.6792 16.0833C29.7264 16.4611 29.6142 16.7917 29.3427 17.075C29.0712 17.3583 28.7347 17.5 28.3333 17.5ZM22.4188 17.5C22.1118 17.5 21.8403 17.3938 21.6042 17.1812C21.3681 16.9688 21.191 16.6854 21.0729 16.3313C20.884 15.6465 20.524 15.0385 19.9927 14.5073C19.4615 13.976 18.8535 13.616 18.1687 13.4271C17.8146 13.309 17.5312 13.1319 17.3188 12.8958C17.1062 12.6597 17 12.3764 17 12.0458C17 11.5736 17.1653 11.1899 17.4958 10.8948C17.8264 10.5997 18.1924 10.4993 18.5938 10.5938C19.916 10.9007 21.0552 11.5323 22.0115 12.4885C22.9677 13.4448 23.5993 14.584 23.9062 15.9062C24.0007 16.3076 23.8944 16.6736 23.5875 17.0042C23.2806 17.3347 22.891 17.5 22.4188 17.5ZM28.2625 30.25C25.3111 30.25 22.3951 29.6066 19.5146 28.3198C16.634 27.033 14.0132 25.209 11.6521 22.8479C9.29097 20.4868 7.46701 17.866 6.18021 14.9854C4.8934 12.1049 4.25 9.18889 4.25 6.2375C4.25 5.8125 4.39167 5.45833 4.675 5.175C4.95833 4.89167 5.3125 4.75 5.7375 4.75H11.475C11.8056 4.75 12.1007 4.86215 12.3604 5.08646C12.6201 5.31076 12.7736 5.57639 12.8208 5.88333L13.7417 10.8417C13.7889 11.2194 13.7771 11.5382 13.7063 11.7979C13.6354 12.0576 13.5056 12.2819 13.3167 12.4708L9.88125 15.9417C10.3535 16.8153 10.9142 17.6594 11.5635 18.474C12.2128 19.2885 12.9271 20.0736 13.7063 20.8292C14.4382 21.5611 15.2056 22.2399 16.0083 22.8656C16.8111 23.4913 17.6611 24.0639 18.5583 24.5833L21.8875 21.2542C22.1 21.0417 22.3774 20.8823 22.7198 20.776C23.0622 20.6698 23.3986 20.6403 23.7292 20.6875L28.6167 21.6792C28.9472 21.7736 29.2188 21.9448 29.4312 22.1927C29.6437 22.4406 29.75 22.7181 29.75 23.025V28.7625C29.75 29.1875 29.6083 29.5417 29.325 29.825C29.0417 30.1083 28.6875 30.25 28.2625 30.25Z" fill="#A6A6A6" fill-opacity="0.5"/>
</svg>
