<svg width="34" height="35" viewBox="0 0 34 35" fill="none" xmlns="http://www.w3.org/2000/svg">
<path d="M11.3334 28.8334V9.00008C11.3334 8.22091 11.6108 7.5539 12.1657 6.99904C12.7205 6.44418 13.3875 6.16675 14.1667 6.16675H22.6667C23.4459 6.16675 24.1129 6.44418 24.6677 6.99904C25.2226 7.5539 25.5 8.22091 25.5 9.00008V13.2501H26.9167C28.0973 13.2501 29.1007 13.6633 29.9271 14.4897C30.7535 15.3161 31.1667 16.3195 31.1667 17.5001V26.0001C31.1667 26.7792 30.8893 27.4463 30.3344 28.0011C29.7796 28.556 29.1125 28.8334 28.3334 28.8334H11.3334ZM6.37504 30.2501C7.36671 30.2501 8.2049 29.9077 8.88962 29.223C9.57435 28.5383 9.91671 27.7001 9.91671 26.7084V15.3751C9.91671 14.3834 9.57435 13.5452 8.88962 12.8605C8.2049 12.1758 7.36671 11.8334 6.37504 11.8334C5.38337 11.8334 4.54518 12.1758 3.86046 12.8605C3.17574 13.5452 2.83337 14.3834 2.83337 15.3751V26.7084C2.83337 27.7001 3.17574 28.5383 3.86046 29.223C4.54518 29.9077 5.38337 30.2501 6.37504 30.2501ZM14.1667 13.2501H22.6667V9.00008H14.1667V13.2501ZM22.6667 20.3334C23.0681 20.3334 23.4046 20.1977 23.6761 19.9261C23.9476 19.6546 24.0834 19.3181 24.0834 18.9167C24.0834 18.5154 23.9476 18.1789 23.6761 17.9074C23.4046 17.6358 23.0681 17.5001 22.6667 17.5001C22.2653 17.5001 21.9289 17.6358 21.6573 17.9074C21.3858 18.1789 21.25 18.5154 21.25 18.9167C21.25 19.3181 21.3858 19.6546 21.6573 19.9261C21.9289 20.1977 22.2653 20.3334 22.6667 20.3334ZM26.9167 20.3334C27.3181 20.3334 27.6546 20.1977 27.9261 19.9261C28.1976 19.6546 28.3334 19.3181 28.3334 18.9167C28.3334 18.5154 28.1976 18.1789 27.9261 17.9074C27.6546 17.6358 27.3181 17.5001 26.9167 17.5001C26.5153 17.5001 26.1789 17.6358 25.9073 17.9074C25.6358 18.1789 25.5 18.5154 25.5 18.9167C25.5 19.3181 25.6358 19.6546 25.9073 19.9261C26.1789 20.1977 26.5153 20.3334 26.9167 20.3334ZM22.6667 24.5834C23.0681 24.5834 23.4046 24.4477 23.6761 24.1761C23.9476 23.9046 24.0834 23.5681 24.0834 23.1667C24.0834 22.7654 23.9476 22.4289 23.6761 22.1574C23.4046 21.8858 23.0681 21.7501 22.6667 21.7501C22.2653 21.7501 21.9289 21.8858 21.6573 22.1574C21.3858 22.4289 21.25 22.7654 21.25 23.1667C21.25 23.5681 21.3858 23.9046 21.6573 24.1761C21.9289 24.4477 22.2653 24.5834 22.6667 24.5834ZM26.9167 24.5834C27.3181 24.5834 27.6546 24.4477 27.9261 24.1761C28.1976 23.9046 28.3334 23.5681 28.3334 23.1667C28.3334 22.7654 28.1976 22.4289 27.9261 22.1574C27.6546 21.8858 27.3181 21.7501 26.9167 21.7501C26.5153 21.7501 26.1789 21.8858 25.9073 22.1574C25.6358 22.4289 25.5 22.7654 25.5 23.1667C25.5 23.5681 25.6358 23.9046 25.9073 24.1761C26.1789 24.4477 26.5153 24.5834 26.9167 24.5834ZM15.5834 24.5834H18.4167C18.8181 24.5834 19.1546 24.4477 19.4261 24.1761C19.6976 23.9046 19.8334 23.5681 19.8334 23.1667V18.9167C19.8334 18.5154 19.6976 18.1789 19.4261 17.9074C19.1546 17.6358 18.8181 17.5001 18.4167 17.5001H15.5834C15.182 17.5001 14.8455 17.6358 14.574 17.9074C14.3025 18.1789 14.1667 18.5154 14.1667 18.9167V23.1667C14.1667 23.5681 14.3025 23.9046 14.574 24.1761C14.8455 24.4477 15.182 24.5834 15.5834 24.5834Z" fill="#A6A6A6" fill-opacity="0.5"/>
</svg>
