<svg width="200" height="101" viewBox="0 0 200 101" fill="none" xmlns="http://www.w3.org/2000/svg">
<g clip-path="url(#clip0_26_183)">
<path d="M91.56 56.5375C100.23 56.5375 104.68 53.8175 104.68 47.9675C104.68 42.9175 101.01 39.5575 93.04 39.5575C83.38 39.5575 79.52 43.8675 78.64 51.5875C77.23 51.4975 75.69 51.4675 73.59 51.4575C73.59 51.0375 73.6 50.6175 73.6 50.1875C73.6 42.3575 70.36 39.5275 61.72 39.5275C57.5 39.5275 53.78 40.1575 51.51 41.0775L51.85 47.3275C53.83 46.2775 56.78 45.2675 59.58 45.2675C63.53 45.2675 64.73 46.8975 64.73 50.8075L64.72 51.3875C64.45 51.3775 63.75 51.3775 63.37 51.3775C53.53 51.3775 48.97 54.3575 48.97 59.8775C48.97 65.5675 51.8 68.9175 59.87 68.9175C64.12 68.9175 68.32 68.3175 73.73 68.3175C73.33 66.0375 73.32 62.7575 73.32 60.5075C73.32 59.3175 73.38 57.8975 73.44 56.2875C75.75 56.3075 77.45 56.3675 78.57 56.4175C79.41 65.5575 84.15 68.9375 94.02 68.9375C97.67 68.9375 101.36 68.3175 103.29 67.4175L102.95 61.1675C101.03 62.2775 98.36 63.1875 95.43 63.1875C90.58 63.1875 87.95 60.6575 87.95 56.6575V56.4675C88.82 56.5075 90.55 56.5375 91.56 56.5375ZM61.97 63.4575C58.97 63.4575 57.69 62.4575 57.69 59.9475C57.69 57.5275 59.32 56.1575 63.42 56.1575C63.8 56.1575 64.26 56.1475 64.59 56.1775C64.57 58.5175 64.52 61.2475 64.65 63.1475C63.94 63.3375 62.89 63.4575 61.97 63.4575ZM87.91 51.7075V51.5675C87.91 47.6475 89.15 44.7675 92.75 44.7675C94.79 44.7675 96.1 45.8375 96.1 47.7775C96.1 50.5075 94.28 51.7775 90.5 51.7775C89.59 51.7775 88.62 51.7675 87.91 51.7075ZM122.41 62.6775C119.51 62.6775 118.66 61.5275 118.66 57.3175V46.4475H124.38V40.4075H118.75C118.75 38.2675 118.92 35.1075 119.1 32.9375H113.8C113.1 38.2175 111.57 40.9375 106.75 41.7375C106.73 43.1575 106.81 45.0975 106.75 46.4475H109.96C109.91 49.4475 109.82 54.9275 109.82 59.9175C109.82 66.2875 113.12 68.8975 119.32 68.8975C122.34 68.8975 124.56 68.4575 125.3 68.2475L124.92 62.0375C124.38 62.4075 123.31 62.6775 122.41 62.6775ZM182.75 50.1875C182.75 42.3575 179.51 39.5275 170.88 39.5275C166.65 39.5275 162.94 40.1575 160.67 41.0775L161.01 47.3275C162.99 46.2775 165.93 45.2675 168.74 45.2675C172.69 45.2675 173.89 46.8975 173.89 50.8075V51.3875C173.61 51.3775 172.92 51.3775 172.54 51.3775C162.69 51.3775 158.14 54.3575 158.14 59.8775C158.14 65.5675 160.97 68.9175 169.04 68.9175C173.29 68.9175 177.49 68.3175 182.89 68.3175C182.5 66.0375 182.49 62.7575 182.49 60.5075C182.48 57.9575 182.75 54.3775 182.75 50.1875ZM171.13 63.4575C168.12 63.4575 166.85 62.4575 166.85 59.9475C166.85 57.5275 168.48 56.1575 172.58 56.1575C172.95 56.1575 173.41 56.1475 173.74 56.1775C173.73 58.5175 173.67 61.2475 173.81 63.1475C173.1 63.3375 172.04 63.4575 171.13 63.4575ZM154.53 55.2975C154.53 52.9375 154.58 49.7975 154.58 49.7975C154.58 42.7275 151.48 39.5575 142.71 39.5575C137.79 39.5575 134.28 40.4175 128.79 40.4175C129.1 45.3775 129.11 51.5075 129.09 55.3075C129.11 59.1675 128.96 66.0875 128.79 68.3175H138.21C137.99 66.0775 137.81 59.6475 137.83 55.3075C137.83 52.8375 137.86 49.8475 137.96 45.8375C138.9 45.5175 140.09 45.2775 141.38 45.2775C144.68 45.2775 145.74 46.8275 145.74 51.0775C145.74 51.0775 145.79 53.7475 145.79 55.3175C145.79 59.1775 145.66 66.0975 145.49 68.3275H154.91C154.69 66.0675 154.5 59.6375 154.53 55.2975ZM37.85 38.2875C36.97 37.4075 35.82 36.9675 34.68 36.9675C33.53 36.9675 32.37 37.4075 31.49 38.2975L26.27 43.5275L21.04 38.2975C20.15 37.3975 19 36.9575 17.85 36.9575C16.7 36.9575 15.55 37.3975 14.67 38.2775L8.31003 44.6375C6.56003 46.3875 6.56003 49.2375 8.32003 50.9975L26.26 68.9375L44.2 50.9975C45.96 49.2475 45.95 46.3975 44.2 44.6375L37.85 38.2875ZM190.23 41.1575C190.23 40.2075 189.65 39.8075 188.52 39.8075H186.74V44.4875H187.51V42.4875H188.23L189.44 44.4875H190.31L189 42.4275C189.71 42.3575 190.23 42.0075 190.23 41.1575ZM187.51 41.8375V40.4675H188.44C188.9 40.4675 189.46 40.5375 189.46 41.0975C189.46 41.7775 188.95 41.8275 188.38 41.8275H187.51V41.8375ZM188.35 37.8475C186.11 37.8475 184.19 39.5375 184.19 42.0775C184.19 44.4875 185.92 46.3075 188.35 46.3075C190.57 46.3075 192.49 44.6275 192.49 42.0775C192.49 39.5275 190.57 37.8475 188.35 37.8475ZM188.35 45.5675C186.34 45.5675 185.09 43.9975 185.09 42.0775C185.09 40.0175 186.51 38.5875 188.35 38.5875C190.16 38.5875 191.58 40.0275 191.58 42.0775C191.58 44.1475 190.16 45.5675 188.35 45.5675Z" fill="#7D3F98"/>
</g>
<defs>
<clipPath id="clip0_26_183">
<rect width="185.49" height="36" fill="white" transform="translate(7 32.9375)"/>
</clipPath>
</defs>
</svg>
