<svg width="200" height="101" viewBox="0 0 200 101" fill="none" xmlns="http://www.w3.org/2000/svg">
<g clip-path="url(#clip0_26_190)">
<path fill-rule="evenodd" clip-rule="evenodd" d="M121.658 19.982C127.227 27.9078 120.968 41.8082 107.757 51.0757C94.5473 60.3433 79.3059 61.4399 73.7782 53.5147C68.2102 45.548 74.4286 31.6477 87.6383 22.3808C100.889 13.1126 116.09 12.016 121.658 19.982Z" fill="white"/>
<path fill-rule="evenodd" clip-rule="evenodd" d="M51.4644 68.9597V76.8842H44.5956V68.9597H41.75V87.9001H44.5956V79.3239H51.4644V87.9001H54.2691V68.9597H51.4644ZM62.9666 76.7221C65.3238 76.7221 65.9743 79.0794 65.8524 80.4613V80.5028H59.837C59.8778 79.1215 60.6093 76.7221 62.9666 76.7221ZM57.0738 81.2745C57.0738 85.2173 59.3091 88.1848 64.1864 88.1848C65.7713 88.1848 66.9911 87.8593 67.6409 87.6148V85.502C66.9503 85.7452 65.853 86.0707 64.5521 86.0707C61.1379 86.0707 59.9998 83.8756 59.8778 82.2913H68.2913C68.3724 81.8445 68.495 80.8679 68.495 80.3394C68.495 77.0068 66.259 74.6489 62.9672 74.6489C59.918 74.6489 57.0738 76.8842 57.0738 81.2745ZM139.299 76.7221C141.656 76.7221 142.346 79.0794 142.225 80.4613V80.5028H136.21C136.25 79.1215 136.981 76.7221 139.299 76.7221ZM133.445 81.3147C133.445 85.2173 135.64 88.1848 140.517 88.1848C142.144 88.1848 143.364 87.8593 144.013 87.6148V85.502C143.281 85.7452 142.225 86.0707 140.884 86.0707C137.51 86.0707 136.372 83.8756 136.21 82.2913H144.663C144.745 81.8445 144.827 80.8679 144.827 80.3394C144.827 77.0068 142.591 74.6489 139.34 74.6489C136.25 74.6489 133.445 76.8842 133.445 81.3147ZM73.1686 84.2011C73.1686 82.5747 74.6322 81.3958 78.4525 81.4781V85.9897C77.9648 86.0707 77.1925 86.1518 76.3391 86.1518C73.1686 86.1518 73.1686 84.6486 73.1686 84.2011ZM71.6246 75.8279V78.0632C72.4371 77.5353 74.1037 76.7623 75.9331 76.7623C78.4933 76.7623 78.4531 78.4289 78.4531 79.2019V79.6896C73.3729 79.6494 70.4456 81.3147 70.4456 84.242C70.4456 86.3561 71.9903 88.1848 76.258 88.1848C78.1684 88.1848 80.5666 87.8191 81.1761 87.6148V78.8362C81.1761 77.0477 80.5666 74.6489 76.2989 74.6489C74.1848 74.6489 72.5182 75.3402 71.6246 75.8279ZM87.4756 68.9597H84.8336V87.9001H87.5975V68.9597H87.4756ZM147.631 72.658V83.5507C147.631 86.6401 148.768 88.1031 151.94 88.1031C152.793 88.1031 153.931 87.941 154.216 87.8599V85.6648C153.647 85.7867 152.834 85.9093 152.427 85.9093H152.387C150.68 85.9093 150.354 84.8924 150.354 83.6739V77.1702H153.972V74.9764H150.354V70.9914L147.631 72.658ZM91.2562 72.7391V83.6331C91.2562 86.7627 92.3937 88.2257 95.5648 88.2257C96.4182 88.2257 97.5563 88.022 97.841 87.941C97.841 87.6965 97.8008 86.3146 97.841 85.7867C97.2314 85.9093 96.4591 86.0312 96.0525 86.0312H96.0123C94.3054 86.0312 93.9799 84.9735 93.9799 83.7958V77.2921H97.5972V75.0983H93.9799V71.0744L91.2562 72.7391ZM127.917 68.9597V83.5909L121.617 68.9597H118.163V87.9001H120.927V73.3902L127.186 87.9001H130.681V68.9597H127.917ZM100.239 68.9597V87.9001H102.962V80.1779C102.962 78.1047 104.465 77.0885 105.766 77.0885C107.269 77.0885 108.611 78.0638 108.611 80.1779V87.9001H111.334V79.8524C111.334 76.9673 109.505 74.6496 106.539 74.6496C104.668 74.6496 103.409 75.7474 103.002 76.1138V68.9604L100.239 68.9597Z" fill="#9E948E"/>
<path fill-rule="evenodd" clip-rule="evenodd" d="M105.685 52.5387C98.6535 57.1313 91.2964 59.5703 85.1591 59.5703C75.4856 59.5703 71.0552 54.2864 71.0552 47.7425C71.0552 40.9957 75.5667 32.6632 83.2487 25.6719V52.5381H90.6052V42.0112H99.0186V52.5381L105.685 52.5387ZM119.667 22.9087C119.667 21.364 118.447 20.4289 116.863 20.4289C115.441 20.4289 114.383 21.3633 114.058 21.7297L114.383 20.4697H111.7L109.546 30.0213H112.229L112.88 27.2983C113.206 25.8755 113.815 22.705 115.725 22.705C116.416 22.705 116.823 23.1116 116.823 23.7614C116.823 24.371 116.659 24.9812 116.538 25.55L115.563 30.0213H118.246L119.221 25.6719C119.423 24.7783 119.667 23.8431 119.667 22.9087ZM124.585 25.3068C124.585 33.1515 118.488 43.1908 108.328 50.71C107.687 51.184 107.036 51.6447 106.376 52.0919V25.2659H99.0193V35.7928H90.6058V25.2659H83.6955C84.8626 24.2268 86.0837 23.2499 87.3536 22.3393C95.0765 16.6086 103.652 13.4375 110.562 13.4375C121.089 13.4381 124.585 19.6572 124.585 25.3068Z" fill="#468588"/>
<path fill-rule="evenodd" clip-rule="evenodd" d="M155.963 72.0894C155.963 71.1141 156.613 70.4228 157.466 70.4228C158.32 70.4228 159.01 71.1141 159.01 72.0894C159.01 73.1049 158.32 73.7956 157.466 73.7956C156.612 73.7956 155.963 73.1049 155.963 72.0894ZM155.312 72.0894C155.312 73.3092 156.287 74.2437 157.466 74.2437C158.645 74.2437 159.621 73.3092 159.621 72.0894C159.621 70.9105 158.645 69.9753 157.466 69.9753C156.287 69.9753 155.312 70.9098 155.312 72.0894ZM156.613 73.3092H157.141V72.2924H157.385L157.954 73.3092H158.482L157.832 72.2515C158.198 72.2113 158.482 72.0492 158.482 71.6018C158.482 71.0739 158.116 70.9105 157.506 70.9105H156.612V73.3092H156.613ZM157.141 71.8851V71.3164H157.507C157.709 71.3164 157.954 71.3164 157.954 71.5609C157.954 71.8449 157.792 71.8851 157.547 71.8851H157.141Z" fill="#9E948E"/>
</g>
<defs>
<clipPath id="clip0_26_190">
<rect width="200" height="100" fill="white" transform="translate(0 0.9375)"/>
</clipPath>
</defs>
</svg>
