<svg width="200" height="101" viewBox="0 0 200 101" fill="none" xmlns="http://www.w3.org/2000/svg">
<g clip-path="url(#clip0_26_197)">
<path d="M17.2948 77.3877C19.135 78.0168 21.0723 78.3558 23.1531 78.3558C31.9656 78.3558 38.1143 71.9642 38.1143 59.8125V23.597L41.4558 21.9985V60.4417C41.4558 72.8363 35.0642 80.0502 26.01 80.0502C22.864 80.0502 19.9099 79.0821 17.2948 77.3877ZM13.4709 73.7072C15.5043 74.385 17.5376 74.8211 19.3293 74.8211C26.7364 74.8211 31.6752 70.1737 31.6752 59.6668V26.3568L34.967 24.8068V59.9571C34.967 70.9475 29.399 76.5641 21.653 76.5641C18.7961 76.5641 15.8906 75.4989 13.4709 73.7072ZM11.1461 70.4154C12.9377 70.9475 14.5836 71.2864 16.0363 71.2864C21.7987 71.2864 25.3323 68.1392 25.3323 59.8599V29.1651L28.5766 27.6152V59.3765C28.5766 68.6724 24.3156 72.8849 18.2154 72.8849C15.6489 72.8849 13.228 72.0128 11.1461 70.4154ZM22.2822 60.732V30.4235L8 36.8625V61.4584C8 66.1544 10.9529 69.3016 15.31 69.3016C19.6196 69.3016 22.2822 66.1058 22.2822 60.732Z" fill="#293682"/>
<path d="M59.8448 30.3715V41.6719C59.8448 45.845 62.3119 49.1044 67.0333 49.1044C71.0838 49.1044 74.1304 46.1191 74.1304 41.5805V30.6768C74.1304 29.489 74.9227 28.5139 76.2621 28.4225L76.6889 28.3913V27.326H69.5917V28.3913L70.0486 28.4225C71.3579 28.5139 72.1803 29.4578 72.1803 30.6768V41.2462C72.1803 44.6884 70.3841 46.7888 67.5815 46.7888C64.7489 46.7888 63.0729 44.5658 63.0729 41.215V30.3715C63.0729 29.1836 63.7126 28.5139 65.0531 28.4225L65.4799 28.3913V27.326H57.4077V28.3913L57.8646 28.4225C59.1739 28.5139 59.8448 29.1536 59.8448 30.3715Z" fill="#293682"/>
<path d="M69.4265 54.476L69.8834 54.506C71.01 54.5673 71.8636 55.0242 71.8636 56.3035V62.9437H63.8827V56.3035C63.8827 55.0242 64.7363 54.5986 65.8629 54.506L66.2897 54.476V53.4095H58.2175V54.476L58.6744 54.506C59.801 54.5673 60.6546 55.0242 60.6546 56.3035V71.8383C60.6546 73.1175 59.801 73.5744 58.6744 73.6346L58.2175 73.6658V74.7311H66.2897V73.6658L65.8629 73.6346C64.7363 73.5432 63.8827 73.1175 63.8827 71.8383V64.5885H71.8636V71.8383C71.8636 73.1175 71.01 73.5744 69.8834 73.6346L69.4265 73.6658V74.7311H77.4987V73.6658L77.0719 73.6346C75.9453 73.5432 75.0917 73.1175 75.0917 71.8383V56.3035C75.0917 55.0242 75.9453 54.5986 77.0719 54.506L77.4987 54.476V53.4095H69.4265" fill="#293682"/>
<path d="M76.658 33.57V34.5752L77.2675 34.6052C78.2113 34.6665 78.7908 35.1234 78.7908 36.4026V45.7842C78.7908 47.0634 78.15 47.5202 77.1148 47.5816L76.658 47.6116V48.6468H83.8765V47.6116L83.4509 47.5816C82.4145 47.5202 81.7749 47.0634 81.7749 45.7842V40.7886C81.8362 37.1337 83.4196 34.9407 85.2784 34.9407C86.7091 34.9407 87.6541 35.9157 87.6541 37.8033V45.7842C87.6541 47.0634 87.0145 47.5202 85.9781 47.5816L85.5213 47.6116V48.6468H92.7399V47.6116L92.3142 47.5816C91.279 47.5202 90.6382 47.0634 90.6382 45.7842V37.4691C90.6382 35.0933 89.1763 33.1132 86.2823 33.1132C84.242 33.1132 82.4759 34.3311 81.7749 36.494V33.1745" fill="#293682"/>
<path d="M118.326 48.9519C121.402 48.9519 123.139 46.8503 123.839 44.4745L122.53 44.1091C121.92 45.7538 120.855 47.033 118.722 47.033C116.255 47.033 114.579 44.6886 114.579 40.9711H124.053V40.0886C124.053 36.1595 121.737 32.9915 118.021 32.9915C114.032 32.9915 111.381 36.7979 111.381 40.9711C111.381 45.1442 113.941 48.9519 118.326 48.9519ZM117.991 34.7275C119.666 34.7275 120.732 36.2809 120.855 39.479H114.64C114.946 36.525 116.164 34.7275 117.991 34.7275Z" fill="#293682"/>
<path d="M103.34 45.2359C103.34 47.6117 104.772 48.9522 107.056 48.9522C109.188 48.9522 110.59 47.3989 111.23 45.1747L110.133 44.8705C109.706 46.1497 109.005 46.942 108.03 46.942C106.751 46.942 106.325 45.997 106.325 44.9005V35.0321H110.499V33.4475H106.325V28.7573H104.802C104.223 32.2908 102.426 33.5701 100.538 33.9657V35.0321H103.34" fill="#293682"/>
<path d="M96.9438 30.7066C97.979 30.7066 98.8928 29.8241 98.8928 28.6663C98.8928 27.5698 97.979 26.6862 96.9438 26.6862C95.8786 26.6862 94.9949 27.5698 94.9949 28.6663C94.9949 29.8241 95.8786 30.7066 96.9438 30.7066Z" fill="#293682"/>
<path d="M95.5432 36.4026V45.7841C95.5432 47.0634 94.9035 47.5202 93.8672 47.5815L93.4103 47.6116V48.6468H100.63V47.6116L100.203 47.5815C99.168 47.5202 98.5284 47.0634 98.5284 45.7841V33.1744L93.2588 33.57V34.5751L94.0198 34.6052C94.9637 34.6364 95.5432 35.1234 95.5432 36.4026Z" fill="#293682"/>
<path d="M131.818 48.9518C133.829 48.9518 135.382 47.9166 136.053 46.1504V48.6465H141.14V47.6124L140.713 47.5812C139.678 47.5199 139.038 47.063 139.038 45.7838V26.9294L133.86 27.3863V28.3914L134.53 28.4226C135.473 28.4527 136.053 28.9397 136.053 30.2189V35.7014C135.382 33.9965 133.829 32.9914 131.818 32.9914C127.828 32.9914 125.575 36.7979 125.575 40.971C125.575 45.1442 127.828 48.9518 131.818 48.9518ZM132.337 34.7275C134.591 34.7275 136.053 37.1645 136.053 40.971C136.053 44.7787 134.591 47.2157 132.337 47.2157C130.205 47.2157 128.803 44.8099 128.803 40.971C128.803 37.1333 130.205 34.7275 132.337 34.7275Z" fill="#293682"/>
<path d="M177.161 59.136C175.394 59.136 173.871 60.2938 173.201 62.3642V59.2586L168.083 59.6542V60.6593L168.693 60.6894C169.638 60.7507 170.216 61.2075 170.216 62.4868V71.8683C170.216 73.1475 169.575 73.6044 168.54 73.6657L168.083 73.6958V74.731H175.303V73.6958L174.876 73.6657C173.841 73.6044 173.201 73.1475 173.201 71.8683V66.7513C173.262 62.9437 174.906 60.5679 176.916 60.5679C177.373 60.5679 177.679 60.6894 177.922 60.9635C177.405 61.2376 177.069 61.7558 177.069 62.3954C177.069 63.2791 177.8 64.0101 178.684 64.0101C179.568 64.0101 180.298 63.2791 180.298 62.2427C180.298 60.3239 178.867 59.136 177.161 59.136Z" fill="#293682"/>
<path d="M186.968 59.0756C182.979 59.0756 180.328 62.882 180.328 67.0552C180.328 71.2284 182.886 75.036 187.274 75.036C190.349 75.036 192.085 72.9344 192.786 70.5586L191.477 70.1932C190.867 71.8379 189.801 73.1171 187.669 73.1171C185.202 73.1171 183.526 70.7715 183.526 67.0552H193V66.1727C193 62.2436 190.684 59.0756 186.968 59.0756ZM183.587 65.5631C183.893 62.6091 185.111 60.8117 186.938 60.8117C188.613 60.8117 189.679 62.365 189.801 65.5631" fill="#293682"/>
<path d="M165.495 72.2036V64.2529C165.495 60.9946 163.453 59.0746 160.011 59.0746C157.057 59.0746 154.437 61.0247 154.437 63.2477C154.437 64.1927 155.138 64.9237 156.052 64.9237C156.936 64.9237 157.667 64.1927 157.667 63.3091C157.667 62.6995 157.331 62.1512 156.844 61.8771C157.393 61.1161 158.366 60.6592 159.555 60.6592C161.413 60.6592 162.54 62.0599 162.54 64.4055V65.1065L158.032 66.964C155.016 68.2132 153.98 69.3097 153.98 71.2899C153.98 73.5742 155.625 75.0362 158.215 75.0362C160.164 75.0362 161.779 73.8483 162.51 72.0509V72.5078C162.51 74.0612 163.606 75.0062 165.433 75.0062C166.164 75.0062 166.743 74.9136 167.352 74.7309V73.6957C166.073 73.8483 165.495 73.3614 165.495 72.2036ZM162.51 68.7614C162.357 71.4414 161.017 73.2388 159.159 73.2388C157.818 73.2388 156.966 72.3251 156.966 70.9232C156.966 69.6752 157.635 68.7002 158.916 68.1519L162.54 66.5384" fill="#293682"/>
<path d="M122.73 70.9542C122.303 72.2335 121.602 73.0258 120.628 73.0258C119.349 73.0258 118.922 72.0819 118.922 70.9854V61.1159H123.095V59.5324H118.922V54.8411H117.399C116.821 58.3746 115.023 59.6539 113.135 60.0506V61.1159H115.937V71.3197C115.937 73.6966 117.369 75.036 119.653 75.036C121.786 75.036 123.187 73.4826 123.827 71.2596" fill="#293682"/>
<path d="M103.419 72.2036V64.2529C103.419 60.9946 101.378 59.0746 97.9355 59.0746C94.9814 59.0746 92.3617 61.0247 92.3617 63.2477C92.3617 64.1927 93.0626 64.9237 93.9763 64.9237C94.86 64.9237 95.591 64.1927 95.591 63.3091C95.591 62.6995 95.2556 62.1512 94.7686 61.8771C95.3169 61.1161 96.2908 60.6592 97.4798 60.6592C99.3373 60.6592 100.464 62.0599 100.464 64.4055V65.1065L95.9565 66.964C92.94 68.2132 91.9048 69.3097 91.9048 71.2899C91.9048 73.5742 93.5495 75.0362 96.1393 75.0362C98.0882 75.0362 99.7029 73.8483 100.434 72.0509V72.5078C100.434 74.0612 101.53 75.0062 103.358 75.0062C104.089 75.0062 104.667 74.9136 105.277 74.7309V73.6957C103.997 73.8483 103.419 73.3614 103.419 72.2036ZM100.434 68.7614C100.281 71.4414 98.9418 73.2388 97.0831 73.2388C95.7437 73.2388 94.8901 72.3251 94.8901 70.9232C94.8901 69.6752 95.5598 68.7002 96.8402 68.1519L100.464 66.5384" fill="#293682"/>
<path d="M147.92 73.1171C145.452 73.1171 143.776 70.7715 143.776 67.0552C143.776 63.2788 145.421 60.873 147.89 60.873C148.986 60.873 149.838 61.2373 150.355 61.9082C149.9 62.2124 149.594 62.7305 149.594 63.3089C149.594 64.1925 150.325 64.9235 151.209 64.9235C152.123 64.9235 152.824 64.1925 152.824 63.1562C152.824 61.3287 150.996 59.0756 147.737 59.0756C143.198 59.0756 140.578 62.8832 140.578 67.0552C140.578 71.2284 143.137 75.036 147.524 75.036C150.539 75.036 152.244 73.0258 152.915 70.7414L151.605 70.3458C151.026 71.8992 149.99 73.1171 147.92 73.1171Z" fill="#293682"/>
<path d="M111.125 71.8682V53.0138L105.947 53.4707V54.4758L106.616 54.5059C107.561 54.5371 108.14 55.024 108.14 56.3033V71.8682C108.14 73.1474 107.5 73.6043 106.465 73.6656L106.008 73.6957V74.7308H113.227V73.6957L112.8 73.6656C111.765 73.6043 111.125 73.1474 111.125 71.8682Z" fill="#293682"/>
<path d="M137.807 71.8682V63.5531C137.807 61.1774 136.345 59.1972 133.451 59.1972C131.411 59.1972 129.644 60.4151 128.943 62.5781V53.0138L123.766 53.4707V54.4758L124.435 54.5059C125.379 54.5371 125.959 55.024 125.959 56.3033V71.8682C125.959 73.1474 125.319 73.6043 124.283 73.6656L123.826 73.6957V74.7308H131.046V73.6957L130.619 73.6656C129.582 73.6043 128.943 73.1474 128.943 71.8682V66.8727C129.004 63.2177 130.589 61.0247 132.446 61.0247C133.877 61.0247 134.822 61.9997 134.822 63.8885V71.8682C134.822 73.1474 134.182 73.6043 133.147 73.6656L132.69 73.6957V74.7308H139.909V73.6957L139.482 73.6656C138.447 73.6043 137.807 73.1474 137.807 71.8682Z" fill="#293682"/>
<path d="M84.7169 59.0756C80.7265 59.0756 78.0767 62.882 78.0767 67.0552C78.0767 71.2284 80.6352 75.036 85.0211 75.036C88.0978 75.036 89.8339 72.9344 90.5348 70.5586L89.2243 70.1932C88.616 71.8379 87.5495 73.1171 85.4179 73.1171C82.9508 73.1171 81.2748 70.7715 81.2748 67.0552H90.7477V66.1727C90.7477 62.2436 88.4332 59.0756 84.7169 59.0756ZM81.3361 65.5631C81.6414 62.6091 82.8594 60.8117 84.6868 60.8117C86.3617 60.8117 87.4281 62.365 87.5495 65.5631" fill="#293682"/>
</g>
<defs>
<clipPath id="clip0_26_197">
<rect width="185" height="58.1738" fill="white" transform="translate(8 21.9375)"/>
</clipPath>
</defs>
</svg>
