<svg width="200" height="100" viewBox="0 0 200 100" fill="none" xmlns="http://www.w3.org/2000/svg">
<path d="M104.993 78.9099C104.061 78.9099 103.505 79.3984 103.119 79.9668V76.7413H101.745V85.0342H103.119V81.6493C103.119 80.717 103.674 80.1612 104.47 80.1612C105.287 80.1612 105.753 80.6945 105.753 81.6269V85.0342H107.127V81.2155C107.129 79.8172 106.344 78.9099 104.993 78.9099Z" fill="#0033FF"/>
<path d="M111.389 78.9099C109.674 78.9099 108.458 80.3183 108.458 82.0357V82.0581C108.458 83.9101 109.799 85.1713 111.536 85.1713C112.638 85.1713 113.423 84.7276 113.991 84.0472L113.184 83.3318C112.707 83.7979 112.229 84.0472 111.558 84.0472C110.673 84.0472 109.978 83.5013 109.831 82.5242H114.24C114.25 82.3871 114.263 82.2625 114.263 82.1378C114.263 80.4105 113.298 78.9099 111.389 78.9099ZM109.821 81.6144C109.946 80.6822 110.536 80.0341 111.376 80.0341C112.286 80.0341 112.807 80.727 112.899 81.6144H109.821Z" fill="#0033FF"/>
<path d="M113.839 71.2651C113.839 70.1184 113.423 70.0512 113.423 70.0512H112.797C111.755 70.0512 110.714 69.0092 110.714 67.9674V57.3887C110.714 53.119 113.263 50.5665 116.544 50.5665C119.355 50.5665 121.439 52.1269 121.439 55.5641V67.9674C121.439 69.0092 120.397 70.0512 119.355 70.0512H118.73C118.73 70.0512 118.313 70.1608 118.313 71.2228C118.313 72.2845 118.73 72.8554 118.73 72.8554H131.018C131.018 72.8554 131.434 72.3942 131.434 71.3324C131.434 70.2706 131.018 70.0536 131.018 70.0536H130.393C129.351 70.0536 128.309 69.0118 128.309 67.9698V55.3075C128.309 49.3178 124.56 46.4038 119.144 46.4038C115.135 46.4038 112.062 48.2783 110.188 51.0376C110.188 51.0376 110.178 48.3057 110.178 47.9767C110.178 47.0843 109.32 46.7728 108.293 47.1866C107.6 47.4657 104.101 48.6971 101.134 48.6971C100.97 48.9163 100.713 49.36 100.713 50.0855C100.713 50.7235 100.863 51.0576 101.129 51.4938H101.755C102.797 51.4938 103.839 52.5356 103.839 53.5776V67.9674C103.839 69.0092 102.797 70.0512 101.755 70.0512H101.129C101.129 70.0512 100.713 70.1184 100.713 71.2427C100.713 72.3693 101.129 72.8529 101.129 72.8529H113.418C113.425 72.8554 113.839 72.4141 113.839 71.2651Z" fill="#0033FF"/>
<path d="M91.1217 48.3032C89.2622 47.0869 86.9316 46.3689 84.3718 46.3689C77.9408 46.3689 73.2198 50.6737 73.2198 56.0701C73.2198 59.3903 75.0345 62.0873 77.5246 63.7474L73.155 69.1763C73.155 69.1763 72.5991 70.1832 72.5991 71.1853C72.5991 72.1848 73.2348 72.8604 73.2348 72.8604H76.3331C74.0523 74.2089 73.0129 76.4547 73.0129 78.374C73.0129 82.1079 76.2808 85.1689 83.5965 85.1689C90.9622 85.1689 97.8093 81.2779 97.8093 75.156C97.8093 70.799 95.217 67.8453 88.7313 67.8453H78.9279L80.8472 65.248C81.9364 65.6119 82.8189 65.7664 84.3742 65.7664C90.7553 65.7664 95.5261 61.4093 95.5261 56.0653C95.5261 54.4052 95.0626 52.8522 94.2449 51.4938H98.0362C98.2356 51.1473 98.4524 50.6662 98.4524 49.8636C98.4524 49.2354 98.2182 48.555 98.0412 48.2982H91.1217V48.3032ZM80.8448 72.8604H86.655C90.1296 72.8604 91.3236 74.7971 91.3236 76.7662C91.3236 79.2563 88.9382 81.7963 84.6334 81.7963C80.588 81.7963 78.3048 79.9818 78.3048 77.2847C78.3022 75.4701 79.3417 73.638 80.8448 72.8604ZM84.3718 62.5534C81.4679 62.5534 79.5983 60.1157 79.5983 56.0701C79.5983 52.0247 81.4653 49.5869 84.3718 49.5869C87.2257 49.5869 89.0927 52.0247 89.0927 56.0701C89.0927 60.1157 87.2257 62.5534 84.3718 62.5534Z" fill="#0033FF"/>
<path d="M54.0043 64.1412C53.1692 63.8495 52.4863 64.1063 52.4863 64.1063C50.557 67.4563 48.8121 68.9993 46.1002 68.9993C41.2047 68.9993 38.0815 64.575 38.0815 59.3156C38.0815 54.4201 40.2675 49.6293 45.32 49.6293C48.4956 49.6293 50.9359 51.6085 50.9359 54.6269L51.0081 55.5641C51.0081 55.5641 50.9109 55.9805 52.232 55.9805C53.5531 55.9805 53.912 55.5641 53.912 55.5641L53.6502 48.7444C53.6502 48.7444 53.6228 48.5649 53.5281 48.4403C53.4359 48.3182 53.2839 48.2235 53.2839 48.2235C51.2524 47.0794 48.5454 46.4014 45.3698 46.4014C37.9245 46.4014 31 51.399 31 60.4099C31 68.4809 37.0919 73.5833 44.0712 73.5833C50.6317 73.5833 53.6777 69.4679 55.0312 64.8865C55.0287 64.8816 54.6623 64.3705 54.0043 64.1412Z" fill="#0033FF"/>
<path d="M63.3365 44.5469C65.7144 44.5469 67.6438 42.5677 67.6438 40.13C67.6438 37.6872 65.7144 35.7106 63.3365 35.7106C60.9586 35.7106 59.0293 37.6872 59.0293 40.13C59.0293 42.5677 60.9586 44.5469 63.3365 44.5469Z" fill="#0033FF"/>
<path d="M66.7739 52.6329C66.7739 51.5909 67.8159 50.5491 68.8577 50.5491H69.4834C69.4834 50.5491 69.8997 50.2873 69.8997 49.2778C69.8997 48.2658 69.4834 47.7473 69.4834 47.7473H57.1949C57.1949 47.7473 56.7786 48.383 56.7786 49.365C56.7786 50.3471 57.1949 50.5491 57.1949 50.5491H57.8205C58.8625 50.5491 59.9043 51.5909 59.9043 52.6329V63.0445V67.9648C59.9043 69.0067 58.8625 70.0487 57.8205 70.0487H57.1949C57.1949 70.0487 56.7786 70.253 56.7786 71.2351C56.7786 72.2173 57.1949 72.8529 57.1949 72.8529H69.4834C69.4834 72.8529 69.8997 72.3344 69.8997 71.3224C69.8997 70.3129 69.4834 70.0511 69.4834 70.0511H68.8577C67.8159 70.0511 66.7739 69.0092 66.7739 67.9674V64.378V52.6329Z" fill="#0033FF"/>
<path d="M146.153 78.9424C145.176 78.9424 144.528 79.1467 143.87 79.4434L144.244 80.5451C144.79 80.3183 145.288 80.1711 145.959 80.1711C146.914 80.1711 147.437 80.6249 147.437 81.4549V81.5696C146.971 81.4224 146.505 81.3203 145.779 81.3203C144.381 81.3203 143.347 81.9559 143.347 83.287V83.3094C143.347 84.5133 144.346 85.1614 145.483 85.1614C146.39 85.1614 147.016 84.7874 147.425 84.2989V85.0367H148.788V81.4798C148.788 79.877 147.923 78.9424 146.153 78.9424ZM147.46 82.8631C147.46 83.6134 146.776 84.1245 145.869 84.1245C145.221 84.1245 144.71 83.808 144.71 83.2396V83.2171C144.71 82.6364 145.221 82.285 146.084 82.285C146.617 82.285 147.105 82.3871 147.457 82.5242V82.8631H147.46Z" fill="#0033FF"/>
<path d="M151.799 80.3855V79.0344H150.426V85.0342H151.799V82.751C151.799 81.1606 152.639 80.378 153.845 80.378H153.925V78.9224C152.866 78.8749 152.173 79.4906 151.799 80.3855Z" fill="#0033FF"/>
<path d="M162.086 69.1115C162.086 68.3039 161.67 68.0597 161.67 68.0597H161.044C160.002 68.0597 158.963 67.0177 158.963 65.9757V47.6652C158.963 47.6652 158.923 47.1267 158.347 47.1267H156.762C156.45 47.1267 156.211 47.3885 156.211 47.3885L154.002 50.2724C153.743 50.6114 153.447 50.2749 153.447 50.2749V50.2774C151.968 48.535 149.486 46.3964 145.007 46.3964C138.289 46.3964 131.885 51.2918 131.885 60.2478C131.885 68.6304 137.404 73.5783 144.174 73.5783C148.028 73.5783 150.475 71.963 152.402 69.463V72.5587C152.402 72.5587 152.427 73.2666 153.222 73.4412C153.938 73.5982 154.486 73.3689 154.486 73.3689L161.672 70.2979C161.667 70.3005 162.086 69.9216 162.086 69.1115ZM145.525 70.1435C140.891 70.1435 138.965 65.5621 138.965 59.9886C138.965 54.4176 140.891 49.8362 145.525 49.8362C150.159 49.8362 152.086 54.4176 152.086 59.9886C152.088 65.5621 150.161 70.1435 145.525 70.1435Z" fill="#0033FF"/>
<path d="M118.047 78.9424C117.07 78.9424 116.421 79.1467 115.763 79.4434L116.137 80.5451C116.683 80.3183 117.182 80.1711 117.852 80.1711C118.807 80.1711 119.33 80.6249 119.33 81.4549V81.5696C118.864 81.4224 118.398 81.3203 117.67 81.3203C116.272 81.3203 115.238 81.9559 115.238 83.287V83.3094C115.238 84.5133 116.237 85.1614 117.374 85.1614C118.281 85.1614 118.907 84.7874 119.315 84.2989V85.0367H120.679V81.4798C120.681 79.877 119.819 78.9424 118.047 78.9424ZM119.353 82.8631C119.353 83.6134 118.67 84.1245 117.763 84.1245C117.114 84.1245 116.604 83.808 116.604 83.2396V83.2171C116.604 82.6364 117.114 82.285 117.977 82.285C118.51 82.285 118.999 82.3871 119.35 82.5242V82.8631H119.353Z" fill="#0033FF"/>
<path d="M157.512 78.9099C155.797 78.9099 154.581 80.3183 154.581 82.0357V82.0581C154.581 83.9101 155.922 85.1713 157.659 85.1713C158.761 85.1713 159.546 84.7276 160.114 84.0472L159.307 83.3318C158.831 83.7979 158.352 84.0472 157.682 84.0472C156.797 84.0472 156.101 83.5013 155.954 82.5242H160.364C160.374 82.3871 160.386 82.2625 160.386 82.1378C160.386 80.4105 159.422 78.9099 157.512 78.9099ZM155.944 81.6144C156.069 80.6822 156.66 80.0341 157.5 80.0341C158.409 80.0341 158.93 80.727 159.023 81.6144H155.944Z" fill="#0033FF"/>
<path d="M140.109 83.9774C139.052 83.9774 138.314 83.115 138.314 82.0456V82.0232C138.314 80.9788 139.042 80.1138 140.041 80.1138C140.734 80.1138 141.178 80.4204 141.597 80.8641L142.449 79.9444C141.893 79.3312 141.188 78.9099 140.051 78.9099C138.257 78.9099 136.938 80.3407 136.938 82.0456V82.068C136.938 83.773 138.257 85.1689 140.039 85.1689C141.208 85.1689 141.901 84.7028 142.494 84.0447L141.664 83.2271C141.233 83.6707 140.757 83.9774 140.109 83.9774Z" fill="#0033FF"/>
<path d="M123.77 76.7389H122.396V85.0317H123.77V76.7389Z" fill="#0033FF"/>
<path d="M127.224 77.387H125.851V79.0345H125.091V80.2162H125.851V83.3742C125.851 84.6928 126.566 85.134 127.578 85.134C128.089 85.134 128.476 85.0194 128.817 84.8274V83.7033C128.543 83.8403 128.271 83.9076 127.965 83.9076C127.499 83.9076 127.227 83.6908 127.227 83.1574V80.2136H128.84V79.0321H127.227V77.387H127.224Z" fill="#0033FF"/>
<path d="M133.473 78.9099C132.541 78.9099 131.985 79.3984 131.599 79.9668V76.7413H130.226V85.0342H131.599V81.6493C131.599 80.717 132.155 80.1612 132.953 80.1612C133.77 80.1612 134.236 80.6945 134.236 81.6269V85.0342H135.61V81.2155C135.61 79.8172 134.824 78.9099 133.473 78.9099Z" fill="#0033FF"/>
<path fill-rule="evenodd" clip-rule="evenodd" d="M60.1484 25.0547C60.1534 22.2779 61.4098 19.8003 63.3739 18.1377C65.3331 19.8078 66.5769 22.2904 66.5719 25.0672C66.5669 27.844 65.3131 30.3216 63.3464 31.9841C61.3873 30.3141 60.1435 27.8315 60.1484 25.0547ZM69.912 17.9607C69.1019 19.905 69.2539 22.0087 70.1438 23.7486C72.0057 23.1528 73.6036 21.7794 74.4136 19.8352C75.2237 17.8909 75.0717 15.7872 74.1819 14.0474C72.3224 14.6406 70.7221 16.0165 69.912 17.9607ZM52.3042 19.7878C53.1068 21.7346 54.6996 23.1155 56.5591 23.7162C57.4564 21.9788 57.616 19.8776 56.8133 17.9283C56.0107 15.9816 54.418 14.6007 52.5585 14C51.6611 15.7373 51.5016 17.8386 52.3042 19.7878ZM41.1448 33.5295C43.0891 34.3396 45.1928 34.1876 46.9327 33.2978C46.3369 31.4358 44.9635 29.838 43.0193 29.0279C41.0751 28.2178 38.9713 28.3698 37.2314 29.2572C37.8272 31.1192 39.2006 32.7195 41.1448 33.5295ZM83.6563 29.1201C81.7094 29.9227 80.3286 31.5156 79.7279 33.3751C81.4652 34.2723 83.5665 34.4318 85.5156 33.6292C87.4623 32.8266 88.8432 31.2338 89.444 29.3744C87.7067 28.477 85.603 28.3175 83.6563 29.1201ZM78.3868 36.9643C75.6101 36.9594 73.1274 38.2031 71.4574 40.1648C73.1199 42.1315 75.5976 43.3854 78.3743 43.3903C81.1511 43.3953 83.6337 42.1515 85.3038 40.1898C83.6438 38.2231 81.1636 36.9694 78.3868 36.9643ZM71.734 27.2332C69.7675 29.1924 68.89 31.8296 69.0969 34.3945C71.6617 34.6088 74.3014 33.7439 76.2706 31.7847C78.2372 29.8256 79.1147 27.1884 78.9078 24.6235C76.3404 24.4066 73.7033 25.274 71.734 27.2332ZM48.3086 36.9643C45.5319 36.9694 43.0542 38.2231 41.3916 40.1898C43.0592 42.1515 45.5442 43.3953 48.3211 43.3903C51.0979 43.3854 53.5755 42.1315 55.238 40.1648C53.568 38.2031 51.0854 36.9594 48.3086 36.9643ZM54.9614 27.2332C52.9947 25.274 50.355 24.4091 47.7876 24.6235C47.5807 27.1884 48.4582 29.8256 50.4249 31.7847C52.3914 33.7439 55.0337 34.6088 57.5985 34.3945C57.8054 31.8271 56.928 29.1924 54.9614 27.2332Z" fill="#03CC54"/>
</svg>
