<svg width="34" height="35" viewBox="0 0 34 35" fill="none" xmlns="http://www.w3.org/2000/svg">
<g clip-path="url(#clip0_39_15)">
<path d="M2.83333 30.25C2.05417 30.25 1.38715 29.9726 0.832292 29.4177C0.277431 28.8628 0 28.1958 0 27.4167V7.58333C0 6.80417 0.277431 6.13715 0.832292 5.58229C1.38715 5.02743 2.05417 4.75 2.83333 4.75H31.1667C31.9458 4.75 32.6128 5.02743 33.1677 5.58229C33.7226 6.13715 34 6.80417 34 7.58333V27.4167C34 28.1958 33.7226 28.8628 33.1677 29.4177C32.6128 29.9726 31.9458 30.25 31.1667 30.25H2.83333ZM12.75 20.3333C13.9306 20.3333 14.934 19.9201 15.7604 19.0938C16.5868 18.2674 17 17.2639 17 16.0833C17 14.9028 16.5868 13.8993 15.7604 13.0729C14.934 12.2465 13.9306 11.8333 12.75 11.8333C11.5694 11.8333 10.566 12.2465 9.73958 13.0729C8.91319 13.8993 8.5 14.9028 8.5 16.0833C8.5 17.2639 8.91319 18.2674 9.73958 19.0938C10.566 19.9201 11.5694 20.3333 12.75 20.3333ZM2.975 27.4167H22.525C21.5333 25.6458 20.1639 24.2587 18.4167 23.2552C16.6694 22.2517 14.7806 21.75 12.75 21.75C10.7194 21.75 8.83056 22.2517 7.08333 23.2552C5.33611 24.2587 3.96667 25.6458 2.975 27.4167ZM21.25 16.0833H28.3333C28.7347 16.0833 29.0712 15.9476 29.3427 15.676C29.6142 15.4045 29.75 15.0681 29.75 14.6667V10.4167C29.75 10.0153 29.6142 9.67882 29.3427 9.40729C29.0712 9.13576 28.7347 9 28.3333 9H21.25C20.8486 9 20.5122 9.13576 20.2406 9.40729C19.9691 9.67882 19.8333 10.0153 19.8333 10.4167V14.6667C19.8333 15.0681 19.9691 15.4045 20.2406 15.676C20.5122 15.9476 20.8486 16.0833 21.25 16.0833ZM24.7917 12.8958L27.4125 11.0542C27.6014 10.9125 27.8021 10.8948 28.0146 11.001C28.2271 11.1073 28.3333 11.2785 28.3333 11.5146C28.3333 11.5382 28.2507 11.7035 28.0854 12.0104L25.6063 13.7458C25.3465 13.9347 25.075 14.0292 24.7917 14.0292C24.5083 14.0292 24.2368 13.9347 23.9771 13.7458L21.4979 12.0104C21.4743 11.9868 21.3917 11.8215 21.25 11.5146C21.25 11.2785 21.3563 11.1073 21.5688 11.001C21.7812 10.8948 21.9819 10.9125 22.1708 11.0542L24.7917 12.8958Z" fill="#A6A6A6" fill-opacity="0.5"/>
</g>
<defs>
<clipPath id="clip0_39_15">
<rect width="34" height="34" fill="white" transform="translate(0 0.5)"/>
</clipPath>
</defs>
</svg>
