<svg width="24" height="24" viewBox="0 0 24 24" fill="none" xmlns="http://www.w3.org/2000/svg">
<path d="M5.3077 20.5C4.81058 20.5 4.38503 20.323 4.03102 19.969C3.67701 19.615 3.5 19.1894 3.5 18.6923V5.30773C3.5 4.81062 3.67701 4.38506 4.03102 4.03106C4.38503 3.67704 4.81058 3.50003 5.3077 3.50003H9.7577C9.82052 2.94491 10.0628 2.47281 10.4846 2.08371C10.9064 1.69459 11.4131 1.50003 12.0048 1.50003C12.5964 1.50003 13.1032 1.69459 13.525 2.08371C13.9468 2.47281 14.1859 2.94491 14.2423 3.50003H18.6923C19.1894 3.50003 19.6149 3.67704 19.9689 4.03106C20.3229 4.38506 20.5 4.81062 20.5 5.30773V11.6327C20.2538 11.5276 20.0073 11.4385 19.7605 11.3654C19.5137 11.2923 19.2602 11.234 19 11.1904V5.30773C19 5.2308 18.9679 5.16027 18.9038 5.09616C18.8397 5.03206 18.7692 5.00001 18.6923 5.00001H5.3077C5.23077 5.00001 5.16024 5.03206 5.09612 5.09616C5.03202 5.16027 4.99997 5.2308 4.99997 5.30773V18.6923C4.99997 18.7692 5.03202 18.8397 5.09612 18.9039C5.16024 18.968 5.23077 19 5.3077 19H11.1654C11.2025 19.2769 11.2577 19.5388 11.3307 19.7856C11.4038 20.0324 11.4929 20.2705 11.5981 20.5H5.3077ZM4.99997 18.0033V19V5.00001V11.1904V11.1154V18.0033ZM7.99998 16.6346H11.2673C11.3109 16.3744 11.3756 16.1208 11.4615 15.874C11.5474 15.6272 11.641 15.3808 11.7423 15.1346H7.99998C7.78748 15.1346 7.60936 15.2065 7.46563 15.3504C7.32188 15.4942 7.25 15.6724 7.25 15.885C7.25 16.0975 7.32188 16.2756 7.46563 16.4192C7.60936 16.5628 7.78748 16.6346 7.99998 16.6346ZM7.99998 12.75H13.5904C14.0212 12.3846 14.4808 12.0785 14.9692 11.8317C15.4577 11.5849 15.9807 11.4096 16.5384 11.3058V11.25H7.99998C7.78748 11.25 7.60936 11.3219 7.46563 11.4657C7.32188 11.6095 7.25 11.7877 7.25 12.0003C7.25 12.2129 7.32188 12.391 7.46563 12.5346C7.60936 12.6782 7.78748 12.75 7.99998 12.75ZM7.99998 8.86538H16C16.2125 8.86538 16.3906 8.79347 16.5344 8.64966C16.6781 8.50586 16.75 8.32766 16.75 8.11506C16.75 7.90247 16.6781 7.72439 16.5344 7.58081C16.3906 7.43721 16.2125 7.36541 16 7.36541H7.99998C7.78748 7.36541 7.60936 7.43731 7.46563 7.58113C7.32188 7.72495 7.25 7.90315 7.25 8.11573C7.25 8.32833 7.32188 8.50642 7.46563 8.65001C7.60936 8.79359 7.78748 8.86538 7.99998 8.86538ZM12 4.34616C12.2166 4.34616 12.3958 4.27532 12.5375 4.13366C12.6791 3.99199 12.75 3.81282 12.75 3.59616C12.75 3.37949 12.6791 3.20032 12.5375 3.05866C12.3958 2.91699 12.2166 2.84616 12 2.84616C11.7833 2.84616 11.6041 2.91699 11.4625 3.05866C11.3208 3.20032 11.25 3.37949 11.25 3.59616C11.25 3.81282 11.3208 3.99199 11.4625 4.13366C11.6041 4.27532 11.7833 4.34616 12 4.34616ZM18 22.5577C16.7513 22.5577 15.6891 22.1198 14.8135 21.2442C13.9378 20.3686 13.5 19.3064 13.5 18.0577C13.5 16.809 13.9378 15.7468 14.8135 14.8712C15.6891 13.9955 16.7513 13.5577 18 13.5577C19.2487 13.5577 20.3109 13.9955 21.1865 14.8712C22.0621 15.7468 22.5 16.809 22.5 18.0577C22.5 19.3064 22.0621 20.3686 21.1865 21.2442C20.3109 22.1198 19.2487 22.5577 18 22.5577ZM17.5577 18.5V20.5577C17.5577 20.6757 17.6019 20.7789 17.6904 20.8673C17.7788 20.9558 17.882 21 18 21C18.1179 21 18.2211 20.9558 18.3096 20.8673C18.3981 20.7789 18.4423 20.6757 18.4423 20.5577V18.5H20.5C20.6179 18.5 20.7211 18.4558 20.8096 18.3673C20.8981 18.2789 20.9423 18.1757 20.9423 18.0577C20.9423 17.9398 20.8981 17.8365 20.8096 17.7481C20.7211 17.6596 20.6179 17.6154 20.5 17.6154H18.4423V15.5577C18.4423 15.4398 18.3981 15.3365 18.3096 15.2481C18.2211 15.1596 18.1179 15.1154 18 15.1154C17.882 15.1154 17.7788 15.1596 17.6904 15.2481C17.6019 15.3365 17.5577 15.4398 17.5577 15.5577V17.6154H15.5C15.382 17.6154 15.2788 17.6596 15.1904 17.7481C15.1019 17.8365 15.0577 17.9398 15.0577 18.0577C15.0577 18.1757 15.1019 18.2789 15.1904 18.3673C15.2788 18.4558 15.382 18.5 15.5 18.5H17.5577Z" fill="white"/>
</svg>
