<svg width="24" height="24" viewBox="0 0 24 24" fill="none" xmlns="http://www.w3.org/2000/svg">
<path d="M10.75 12.75V14.4904C10.75 14.7032 10.8234 14.883 10.9702 15.0298C11.117 15.1766 11.2968 15.25 11.5096 15.25H12.4903C12.7096 15.25 12.891 15.1766 13.0346 15.0298C13.1782 14.883 13.25 14.7032 13.25 14.4904V12.75H14.9903C15.2096 12.75 15.391 12.6766 15.5346 12.5298C15.6782 12.383 15.75 12.2032 15.75 11.9904V11.0097C15.75 10.7904 15.6782 10.609 15.5346 10.4654C15.391 10.3219 15.2096 10.2501 14.9903 10.2501H13.25V8.50966C13.25 8.29043 13.1782 8.10902 13.0346 7.96544C12.891 7.82185 12.7096 7.75006 12.4903 7.75006H11.5096C11.2968 7.75006 11.117 7.82185 10.9702 7.96544C10.8234 8.10902 10.75 8.29043 10.75 8.50966V10.2501H9.0096C8.79678 10.2501 8.61698 10.3219 8.47018 10.4654C8.32339 10.609 8.25 10.7904 8.25 11.0097V11.9904C8.25 12.2032 8.32339 12.383 8.47018 12.5298C8.61698 12.6766 8.79678 12.75 9.0096 12.75H10.75ZM12 21.3712C11.8961 21.3712 11.7942 21.3628 11.6942 21.3462C11.5942 21.3295 11.4974 21.3045 11.4038 21.2712C9.29486 20.5212 7.61698 19.1914 6.3702 17.2817C5.1234 15.3721 4.5 13.3116 4.5 11.1V6.59621C4.5 6.21801 4.60962 5.87667 4.82885 5.57219C5.04808 5.26769 5.33013 5.04685 5.675 4.90969L11.3673 2.78469C11.5814 2.70777 11.7923 2.66931 12 2.66931C12.2077 2.66931 12.4186 2.70777 12.6327 2.78469L18.325 4.90969C18.6698 5.04685 18.9519 5.26769 19.1711 5.57219C19.3903 5.87667 19.5 6.21801 19.5 6.59621V11.1C19.5 13.3116 18.8765 15.3721 17.6297 17.2817C16.383 19.1914 14.7051 20.5212 12.5961 21.2712C12.5025 21.3045 12.4057 21.3295 12.3057 21.3462C12.2057 21.3628 12.1038 21.3712 12 21.3712Z" fill="#89CE12"/>
</svg>
