<svg width="24" height="24" viewBox="0 0 24 24" fill="none" xmlns="http://www.w3.org/2000/svg">
<path d="M12.0001 12.1923C13.0514 12.1923 14.1363 12.1128 15.2549 11.9539C16.3735 11.7949 17.4232 11.5635 18.4039 11.2596C18.6988 11.1455 18.9744 11.1853 19.2309 11.3789C19.4873 11.5725 19.6155 11.8257 19.6155 12.1385V18.9519C19.6155 19.2724 19.5232 19.5615 19.3388 19.819C19.1543 20.0766 18.9158 20.2619 18.6232 20.375C17.6347 20.7109 16.569 20.9695 15.4261 21.1509C14.2831 21.3323 13.1411 21.423 12.0001 21.423C10.8591 21.423 9.71712 21.3323 8.57417 21.1509C7.43122 20.9695 6.36551 20.7109 5.37704 20.375C5.08444 20.2619 4.84592 20.0766 4.66147 19.819C4.477 19.5615 4.38477 19.2724 4.38477 18.9519V12.1385C4.38477 11.8257 4.51297 11.5725 4.76937 11.3789C5.02578 11.1853 5.30142 11.1455 5.59629 11.2596C6.57706 11.5635 7.62673 11.7949 8.74532 11.9539C9.8639 12.1128 10.9488 12.1923 12.0001 12.1923ZM12.0001 2.57698C12.9943 2.57698 13.8454 2.93098 14.5535 3.63898C15.2615 4.34698 15.6155 5.1981 15.6155 6.19233C15.6155 7.18655 15.2615 8.03767 14.5535 8.74568C13.8454 9.45368 12.9943 9.80768 12.0001 9.80768C11.0059 9.80768 10.1548 9.45368 9.44677 8.74568C8.73877 8.03767 8.38477 7.18655 8.38477 6.19233C8.38477 5.1981 8.73877 4.34698 9.44677 3.63898C10.1548 2.93098 11.0059 2.57698 12.0001 2.57698Z" fill="white"/>
</svg>
